<svg aria-hidden="true" style="position: absolute; width: 0; height: 0; overflow: hidden;" version="1.1" xmlns="http://www.w3.org/2000/svg" xmlns:xlink="http://www.w3.org/1999/xlink">
<defs>
<symbol id="icon-lock" viewBox="0 0 24 32">
<path fill="#fed136" style="fill: var(--color1, #fed136)" d="M11.789 0c4.34 0 7.859 3.079 7.859 6.877v7.859h0.984c1.628 0 2.947 1.32 2.947 2.947v0 10.806c0 1.628-1.32 2.947-2.947 2.947v0h-17.684c-1.628 0-2.947-1.32-2.947-2.947v0-10.806c0-1.628 1.32-2.947 2.947-2.947v0h0.982v-7.859c0-3.798 3.519-6.877 7.86-6.877zM15.495 14.737h-7.411c-0.141-0.288-0.223-0.626-0.224-0.983v-6.875c0-1.628 1.76-2.947 3.929-2.947 2.171 0 3.93 1.32 3.93 2.947v6.876c0 0.345-0.079 0.676-0.224 0.984zM13.754 25.017c1.183-0.692 1.965-1.956 1.965-3.403 0-2.17-1.759-3.929-3.929-3.929s-3.929 1.759-3.929 3.929c0 1.447 0.782 2.711 1.946 3.393l0.019 0.010v1.507c0 1.085 0.88 1.965 1.965 1.965s1.965-0.88 1.965-1.965v0-1.507z"></path>
</symbol>
<symbol id="icon-computer" viewBox="0 0 39 32">
<path fill="#fed136" style="fill: var(--color1, #fed136)" d="M31.656 0h-25.324c-0 0-0.001 0-0.001 0-2.098 0-3.799 1.701-3.799 3.799v0 16.461c0 0.443 0.075 0.87 0.216 1.266h-0.216v2.532h3.799v-20.258h25.324v20.26h3.799v-2.535h-0.216c0.141-0.395 0.216-0.823 0.216-1.266v-16.46c0-2.098-1.7-3.798-3.798-3.799h-0zM2.533 26.59h32.922c1.398 0.001 2.532 1.134 2.532 2.533v0c0 1.399-2.4 2.532-3.799 2.532h-30.39c-1.399 0.001-3.799-1.132-3.799-2.531s1.133-2.532 2.532-2.533h0zM22.792 29.123h-7.598c-0.699 0-1.266 0.283-1.266 0.633s0.567 0.632 1.266 0.632h7.598c0.699 0 1.266-0.283 1.266-0.632s-0.567-0.633-1.266-0.633zM10.491 14.855l1.783-1.79c0.228-0.229 0.543-0.37 0.891-0.37s0.664 0.142 0.891 0.37l0 0 2.337 2.347 7.532-7.565c0.228-0.229 0.543-0.371 0.891-0.371s0.664 0.142 0.891 0.371l0 0 1.783 1.79c0.228 0.23 0.369 0.546 0.369 0.896s-0.141 0.666-0.369 0.896l0-0-9.805 9.848c-0.228 0.229-0.543 0.371-0.891 0.371-0.245 0-0.474-0.070-0.667-0.191l0.005 0.003c-0.088 0.022-0.189 0.035-0.294 0.035-0.348 0-0.664-0.142-0.891-0.371l-0-0-4.456-4.477c-0.228-0.23-0.369-0.546-0.369-0.895s0.141-0.665 0.369-0.895l-0 0z"></path>
</symbol>
<symbol id="icon-bind" viewBox="0 0 32 32">
<path fill="#fed136" style="fill: var(--color1, #fed136)" d="M18.919 0.304c-1.081 0.624-1.451 2.005-0.827 3.086l2.392 4.139h-9.34l2.385-4.129c0.196-0.335 0.309-0.724 0.309-1.14 0-1.248-1.012-2.26-2.26-2.26-0.832 0-1.559 0.45-1.957 1.13l-3.389 5.87c-0.098 0.171-0.172 0.349-0.222 0.529h-3.187c-1.56 0-2.824 1.264-2.824 2.824s1.264 2.824 2.824 2.824h25.98c1.56 0 2.824-1.264 2.824-2.824s-1.264-2.824-2.824-2.824h-3.188c-0.049-0.181-0.123-0.359-0.222-0.529l-3.389-5.87c-0.624-1.081-2.005-1.451-3.085-0.826zM3.301 31.25l-0.977-16.944h26.978l-0.976 16.944h-25.025zM16.944 19.955c0-0.624-0.506-1.129-1.129-1.129s-1.129 0.506-1.129 1.129v0 6.777c0.017 0.611 0.516 1.099 1.129 1.099s1.112-0.489 1.129-1.098l0-0.002v-6.777zM22.591 18.826c0.624 0 1.13 0.505 1.13 1.129v6.777c-0.017 0.611-0.516 1.099-1.129 1.099s-1.112-0.489-1.129-1.098l-0-0.002v-6.777c0-0.624 0.505-1.129 1.129-1.129zM10.166 19.954c0-0.624-0.506-1.129-1.129-1.129s-1.129 0.506-1.129 1.129v0 6.777c0.017 0.611 0.516 1.099 1.129 1.099s1.112-0.489 1.129-1.098l0-0.002v-6.777z"></path>
</symbol>
</defs>
</svg>
